<?xml version="1.0" encoding="UTF-8"?>
<svg version="1.1" xmlns="http://www.w3.org/2000/svg" width="176" height="48">
<path d="M0 0 C2.279499 0.02133696 4.44069922 0.17038542 6.69140625 0.5234375 C7.02140625 1.8434375 7.35140625 3.1634375 7.69140625 4.5234375 C11.98140625 4.5234375 16.27140625 4.5234375 20.69140625 4.5234375 C23.70182292 8.95052083 23.70182292 8.95052083 24.69140625 11.5234375 C24.02473958 13.5234375 23.35807292 15.5234375 22.69140625 17.5234375 C23.65203704 19.28459395 24.621909 21.04550418 25.72265625 22.72265625 C27.31228489 25.67757078 27.06706728 28.26770857 26.69140625 31.5234375 C24.69140625 34.5234375 24.69140625 34.5234375 21.37890625 35.2109375 C17.2409741 36.68376081 17.18155298 36.98520183 15.37890625 40.6484375 C14.22265625 42.8125 14.22265625 42.8125 12.69140625 44.5234375 C9.26746786 45.23147414 6.13789777 45.00527709 2.69140625 44.5234375 C2.03140625 42.8734375 1.37140625 41.2234375 0.69140625 39.5234375 C-3.59859375 39.5234375 -7.88859375 39.5234375 -12.30859375 39.5234375 C-14.47646722 35.18769056 -14.08278773 34.12852804 -13.3359375 29.60546875 C-13.30300845 27.09815675 -13.91153353 25.99560355 -15.24609375 23.8984375 C-17.46470708 20.26797932 -17.95478247 18.67750786 -17.30859375 14.5234375 C-16.24609375 12.2734375 -16.24609375 12.2734375 -14.30859375 10.5234375 C-13.19484375 10.2759375 -12.08109375 10.0284375 -10.93359375 9.7734375 C-6.84223767 8.36262506 -6.75752308 8.00829764 -4.93359375 4.3984375 C-2.93197571 0.6647796 -2.93197571 0.6647796 0 0 Z M-1.30859375 3.5234375 C-2.07892355 4.82410973 -2.82465749 6.13938772 -3.55859375 7.4609375 C-5.9360186 11.39096634 -5.9360186 11.39096634 -9.12109375 12.5234375 C-9.84296875 12.5234375 -10.56484375 12.5234375 -11.30859375 12.5234375 C-9.84030432 17.70278811 -7.49368112 21.86717162 -4.68359375 26.3984375 C-4.26335938 27.08679688 -3.843125 27.77515625 -3.41015625 28.484375 C-2.38166903 30.16735408 -1.34587275 31.84586282 -0.30859375 33.5234375 C-2.61859375 33.5234375 -4.92859375 33.5234375 -7.30859375 33.5234375 C-7.63859375 34.8434375 -7.96859375 36.1634375 -8.30859375 37.5234375 C-7.52613281 37.57242188 -6.74367188 37.62140625 -5.9375 37.671875 C-4.92558594 37.74664062 -3.91367188 37.82140625 -2.87109375 37.8984375 C-1.86175781 37.96804687 -0.85242188 38.03765625 0.1875 38.109375 C1.01378906 38.24601562 1.84007812 38.38265625 2.69140625 38.5234375 C3.02140625 39.1834375 3.35140625 39.8434375 3.69140625 40.5234375 C7.12640233 39.37843881 7.30804444 38.95368314 8.953125 35.92578125 C9.54770508 34.84780273 9.54770508 34.84780273 10.15429688 33.74804688 C10.55841797 32.99330078 10.96253906 32.23855469 11.37890625 31.4609375 C12.00249023 30.32301758 12.00249023 30.32301758 12.63867188 29.16210938 C13.66461707 27.28710609 14.67910869 25.40584407 15.69140625 23.5234375 C16.35140625 23.5234375 17.01140625 23.5234375 17.69140625 23.5234375 C18.35140625 24.8434375 19.01140625 26.1634375 19.69140625 27.5234375 C21.01140625 27.5234375 22.33140625 27.5234375 23.69140625 27.5234375 C23.25828125 26.4715625 23.25828125 26.4715625 22.81640625 25.3984375 C19.55581303 17.06581038 19.55581303 17.06581038 20.69140625 12.5234375 C13.43140625 12.5234375 6.17140625 12.5234375 -1.30859375 12.5234375 C-0.64859375 11.2034375 0.01140625 9.8834375 0.69140625 8.5234375 C0.38762573 5.83350697 0.38762573 5.83350697 -0.30859375 3.5234375 C-0.63859375 3.5234375 -0.96859375 3.5234375 -1.30859375 3.5234375 Z " fill="#6869ED" transform="translate(19.30859375,1.4765625)"/>
<path d="M0 0 C1.65 0 3.3 0 5 0 C6.80078125 1.96875 6.80078125 1.96875 8.3125 4.5 C8.82425781 5.3353125 9.33601563 6.170625 9.86328125 7.03125 C10.23839844 7.6809375 10.61351563 8.330625 11 9 C11.144375 7.700625 11.28875 6.40125 11.4375 5.0625 C11.875 1.125 11.875 1.125 13 0 C14.65 0 16.3 0 18 0 C18 6.93 18 13.86 18 21 C16.02 21 14.04 21 12 21 C10.1015625 19.03125 10.1015625 19.03125 8.625 16.5 C8.12226562 15.6646875 7.61953125 14.829375 7.1015625 13.96875 C6.55628906 12.99421875 6.55628906 12.99421875 6 12 C5.67 14.97 5.34 17.94 5 21 C3.35 21 1.7 21 0 21 C0 14.07 0 7.14 0 0 Z " fill="#101828" transform="translate(103,13)"/>
<path d="M0 0 C3.26991255 0.04116796 4.29241728 0.33724342 7.25 2.0625 C9.25 4.3125 9.25 4.3125 9.25 8.3125 C7.6 8.3125 5.95 8.3125 4.25 8.3125 C3.92 7.3225 3.59 6.3325 3.25 5.3125 C0.24615946 6.0079344 0.24615946 6.0079344 -2.75 7.3125 C-3.92612195 9.09921071 -3.92612195 9.09921071 -3.75 11.3125 C-2.88545562 14.01715742 -2.88545562 14.01715742 -1.75 16.3125 C-0.1 15.9825 1.55 15.6525 3.25 15.3125 C2.26 14.9825 1.27 14.6525 0.25 14.3125 C0.25 12.9925 0.25 11.6725 0.25 10.3125 C3.55 10.3125 6.85 10.3125 10.25 10.3125 C9.9671537 13.98950184 9.73127046 16.60910472 7.625 19.6875 C4.40592034 21.89002819 2.14010867 22.24542916 -1.75 22.3125 C-7.0713511 20.40484583 -7.0713511 20.40484583 -8.890625 17.4765625 C-10.35867097 13.77975583 -10.45900441 10.21202425 -9.75 6.3125 C-7.3125 3.3125 -7.3125 3.3125 -4.75 1.3125 C-3.75 0.3125 -3.75 0.3125 0 0 Z " fill="#101727" transform="translate(132.75,12.6875)"/>
<path d="M0 0 C2.279499 0.02133696 4.44069922 0.17038542 6.69140625 0.5234375 C7.02140625 1.8434375 7.35140625 3.1634375 7.69140625 4.5234375 C11.98140625 4.5234375 16.27140625 4.5234375 20.69140625 4.5234375 C23.9140625 9.69921875 23.9140625 9.69921875 24.69140625 11.5234375 C24.36140625 12.5134375 24.03140625 13.5034375 23.69140625 14.5234375 C22.70140625 14.5234375 21.71140625 14.5234375 20.69140625 14.5234375 C20.69140625 13.8634375 20.69140625 13.2034375 20.69140625 12.5234375 C13.43140625 12.5234375 6.17140625 12.5234375 -1.30859375 12.5234375 C-0.97859375 10.2134375 -0.64859375 7.9034375 -0.30859375 5.5234375 C-0.63859375 5.1934375 -0.96859375 4.8634375 -1.30859375 4.5234375 C-1.57671875 5.08933594 -1.84484375 5.65523438 -2.12109375 6.23828125 C-5.28705442 12.16404317 -5.28705442 12.16404317 -8.3515625 13.2421875 C-10.32918974 13.44391268 -12.32097185 13.49085353 -14.30859375 13.5234375 C-15.29859375 14.0184375 -15.29859375 14.0184375 -16.30859375 14.5234375 C-15.74609375 12.6484375 -15.74609375 12.6484375 -14.30859375 10.5234375 C-12.66890625 10.1521875 -12.66890625 10.1521875 -10.99609375 9.7734375 C-6.84542797 8.36643215 -6.77038349 8.04641712 -4.93359375 4.3984375 C-2.93197571 0.6647796 -2.93197571 0.6647796 0 0 Z " fill="#6D6EEF" transform="translate(19.30859375,1.4765625)"/>
<path d="M0 0 C3.09083103 1.30501754 4.55507243 2.31238467 6.375 5.125 C7.48078374 10.21160518 7.22856775 15.0342916 4.4375 19.5 C1.02593906 21.59942212 -1.99326589 22.34607108 -6 22 C-11.43209877 19.13580247 -11.43209877 19.13580247 -13 16 C-13.53118252 11.08003072 -13.75105553 7.22672403 -11.125 2.9375 C-7.45699529 -0.40685724 -4.91549687 -0.33325402 0 0 Z M-6 5 C-8.31282587 8.46923881 -8.42478586 9.92205575 -8 14 C-6.95625978 16.04451019 -6.95625978 16.04451019 -5 17 C-2.3727086 16.92466753 -2.3727086 16.92466753 0 16 C1.38550197 13.22899606 1.1877467 11.0665294 1 8 C0.34 7.01 -0.32 6.02 -1 5 C-3.5 4.5 -3.5 4.5 -6 5 Z " fill="#101727" transform="translate(94,13)"/>
<path d="M0 0 C1.65000386 2.93517601 3.29427432 5.87352474 4.9375 8.8125 C5.40607422 9.64587891 5.87464844 10.47925781 6.35742188 11.33789062 C6.80537109 12.14033203 7.25332031 12.94277344 7.71484375 13.76953125 C8.12855225 14.50792236 8.54226074 15.24631348 8.96850586 16.00708008 C10 18 10 18 11 21 C8.69 21 6.38 21 4 21 C3.67 22.32 3.34 23.64 3 25 C6.63 25 10.26 25 14 25 C14.33 25.99 14.66 26.98 15 28 C15.66 28.33 16.32 28.66 17 29 C16.01 29.66 15.02 30.32 14 31 C13.34 29.68 12.68 28.36 12 27 C7.71 27 3.42 27 -1 27 C-3.16787347 22.66425306 -2.77419398 21.60509054 -2.02734375 17.08203125 C-1.9944147 14.57471925 -2.60293978 13.47216605 -3.9375 11.375 C-6.12830199 7.79005129 -6.66898463 6.10947698 -6 2 C-3 0 -3 0 0 0 Z " fill="#403EA1" transform="translate(8,14)"/>
<path d="M0 0 C1.98 0 3.96 0 6 0 C7.32 2.31 8.64 4.62 10 7 C11.32 4.69 12.64 2.38 14 0 C15.98 0 17.96 0 20 0 C18.80481097 3.36825998 17.24938914 6.31154581 15.4375 9.375 C13.1683326 13.359391 12.2907258 16.44529579 12 21 C10.35 21 8.7 21 7 21 C6.91363281 20.3709375 6.82726562 19.741875 6.73828125 19.09375 C5.80685059 13.4197137 4.39829207 9.36353151 1.0234375 4.69140625 C0 3 0 3 0 0 Z " fill="#101727" transform="translate(143,13)"/>
<path d="M0 0 C5.61 0 11.22 0 17 0 C17 1.65 17 3.3 17 5 C15.02 5 13.04 5 11 5 C11 10.28 11 15.56 11 21 C9.35 21 7.7 21 6 21 C6 15.72 6 10.44 6 5 C4.02 5 2.04 5 0 5 C0 3.35 0 1.7 0 0 Z " fill="#101727" transform="translate(63,13)"/>
<path d="M0 0 C1.98 0 3.96 0 6 0 C6 6.93 6 13.86 6 21 C4.02 21 2.04 21 0 21 C0 14.07 0 7.14 0 0 Z " fill="#101727" transform="translate(164,13)"/>
<path d="M0 0 C4.62 0 9.24 0 14 0 C13.16184862 4.19075691 12.49330151 6.28073843 10.4375 9.8125 C9.98246094 10.60269531 9.52742188 11.39289062 9.05859375 12.20703125 C8.70925781 12.79871094 8.35992187 13.39039063 8 14 C7.34 14 6.68 14 6 14 C4.4921875 11.953125 4.4921875 11.953125 2.875 9.25 C2.33617187 8.36828125 1.79734375 7.4865625 1.2421875 6.578125 C0 4 0 4 0 0 Z " fill="#5552D7" transform="translate(17,19)"/>
<path d="M0 0 C3.63 0 7.26 0 11 0 C11.33 0.99 11.66 1.98 12 3 C12.66 3.33 13.32 3.66 14 4 C13.01 4.66 12.02 5.32 11 6 C10.34 4.68 9.68 3.36 9 2 C5.7 2 2.4 2 -1 2 C-0.67 1.34 -0.34 0.68 0 0 Z " fill="#4D49BC" transform="translate(11,39)"/>
<path d="M0 0 C0.66 0.33 1.32 0.66 2 1 C0.5 3.9375 0.5 3.9375 -2 7 C-4.73044491 7.80942043 -7.11945547 7.86061881 -10 8 C-10.99 8.495 -10.99 8.495 -12 9 C-11.4375 7.125 -11.4375 7.125 -10 5 C-7.68152126 4.2833793 -5.34680297 3.61757973 -3 3 C-1.09829946 1.52238341 -1.09829946 1.52238341 0 0 Z " fill="#5C58D2" transform="translate(15,7)"/>
</svg>
